<svg t="1685436560677" class="icon" viewBox="0 0 1024 1024" version="1.1" xmlns="http://www.w3.org/2000/svg" p-id="1950" id="mx_n_1685436560678" data-spm-anchor-id="a313x.7781069.0.i16" width="16" height="16"><path d="M512 96a32 32 0 0 1 31.488 26.24L544 128v31.936L896 160a32 32 0 0 1 31.488 26.24L928 192v512a32 32 0 0 1-26.24 31.488L896 736H544v45.632l172.48 101.376 4.736 3.392a32 32 0 0 1-31.936 54.272l-5.184-2.496-172.288-101.184-175.808 101.376a32 32 0 0 1-36.672-52.16l4.672-3.328L480 781.44v-45.44H128a32 32 0 0 1-31.488-26.24L96 704V192a32 32 0 0 1 26.24-31.488L128 160l352-0.064V128a32 32 0 0 1 32-32z m352 128h-704v448h704v-448z m-116.48 77.184a32 32 0 0 1 3.84 40.768l-3.712 4.48-212.928 214.4a32 32 0 0 1-41.6 3.328l-4.352-3.84-68.352-72.32-109.568 103.872a32 32 0 0 1-40.96 2.56l-4.288-3.84a32 32 0 0 1-2.56-40.832l3.776-4.352 132.864-125.888a32 32 0 0 1 40.96-2.56l4.288 3.84L512.64 492.288l189.696-190.976a32 32 0 0 1 45.248-0.128z" fill="" p-id="1951"></path></svg>