<svg t="1685436726809" class="icon" viewBox="0 0 1024 1024" version="1.1" xmlns="http://www.w3.org/2000/svg" p-id="2427" width="16" height="16"><path d="M512 64a136 136 0 0 1 98.88 229.376 239.872 239.872 0 0 1 139.456 190.08 136 136 0 0 1 68.544 225.92A239.744 239.744 0 0 1 960 928a32 32 0 1 1-64 0 176 176 0 0 0-352 0 32 32 0 0 1-26.24 31.488L512 960a32 32 0 0 1-32-32 176 176 0 0 0-352 0 32 32 0 1 1-64 0c0-97.28 57.92-181.12 141.12-218.752a136.064 136.064 0 0 1 68.672-225.92 240 240 0 0 1 139.264-190.08A136 136 0 0 1 512 64z m0 272a176 176 0 0 0-173.824 148.352 136 136 0 0 1 64.704 225.024A240.512 240.512 0 0 1 512 808.256a240.704 240.704 0 0 1 109.12-99.008 136.064 136.064 0 0 1 64.64-224.896A175.936 175.936 0 0 0 512 336zM304.128 543.936L304 544a72 72 0 1 0 7.872 0.448l-7.744-0.512z m416.32 0.064h-0.448l-0.448-0.064-7.424 0.512a72 72 0 1 0 8.32-0.448zM512 128a72 72 0 1 0 0 144A72 72 0 0 0 512 128z" fill="" p-id="2428"></path></svg>