<?xml version="1.0" standalone="no"?><!DOCTYPE svg PUBLIC "-//W3C//DTD SVG 1.1//EN" "http://www.w3.org/Graphics/SVG/1.1/DTD/svg11.dtd"><svg t="1685435040898" class="icon" viewBox="0 0 1024 1024" version="1.1" xmlns="http://www.w3.org/2000/svg" p-id="1112" xmlns:xlink="http://www.w3.org/1999/xlink" width="200" height="200"><path d="M583.424 64a32 32 0 0 1 21.76 8.512l312.512 289.088a32 32 0 0 1 10.304 23.488V928a32 32 0 0 1-32 32H128a32 32 0 0 1-32-32v-832A32 32 0 0 1 128 64zM570.88 128H160v768h704V399.04L570.88 128z m-48 212.16a224 224 0 1 1 0 448 32 32 0 1 1 0-64 160 160 0 1 0-157.376-188.8l21.312-22.208a32 32 0 1 1 46.208 44.288L354.048 640l-0.64 0.512-0.64 0.704a32.512 32.512 0 0 1-1.28 1.28l2.56-2.56a32.128 32.128 0 0 1-46.464-0.192l2.496 2.368a32.512 32.512 0 0 1-1.28-1.152l-0.576-0.64-0.64-0.64L230.4 557.184l-3.584-4.48a32 32 0 0 1 50.304-39.168l23.296 24.832A224 224 0 0 1 522.88 340.16z" fill="#2c2c2c" p-id="1113"></path></svg>